<svg height="512pt" viewBox="-146 0 512 512.001" width="512pt" xmlns="http://www.w3.org/2000/svg"><path d="m211.566406 169.195312c-4.183594 0-7.574218 3.390626-7.574218 7.574219v7.628907c0 27.832031-4.988282 55.144531-14.820313 81.179687l-3.714844 9.828125c-10.484375 27.75-15.800781 56.863281-15.800781 86.53125v85.433594h-120.171875v-28.402344c0-4.183594-3.390625-7.574219-7.574219-7.574219s-7.574218 3.390625-7.574218 7.574219v32.945312l-12.535157 13.164063c-4.941406 5.1875-7.664062 11.988281-7.664062 19.152344 0 15.3125 12.460937 27.769531 27.773437 27.769531h135.320313c15.3125 0 27.769531-12.457031 27.769531-27.769531 0-7.164063-2.71875-13.964844-7.660156-19.152344l-12.535156-13.164063v-89.976562c0-27.828125 4.988281-55.140625 14.820312-81.175781l3.714844-9.828125c10.484375-27.753906 15.800781-56.867188 15.800781-86.53125v-7.632813c0-4.183593-3.390625-7.574219-7.574219-7.574219zm-21.710937 315.035157c0 6.960937-5.664063 12.621093-12.625 12.621093h-135.320313c-6.960937 0-12.625-5.664062-12.625-12.621093 0-3.257813 1.238282-6.347657 3.484375-8.707031l12.386719-13.007813h128.828125l12.386719 13.007813c2.246094 2.359374 3.484375 5.449218 3.484375 8.707031zm0 0"/><path d="m185.683594 22.902344c-6.800782-13.871094-21.011719-22.902344-36.726563-22.902344-6.972656 0-13.6875 1.730469-19.695312 5.046875-6.007813-3.316406-12.722657-5.046875-19.691407-5.046875s-13.683593 1.730469-19.691406 5.046875c-6.007812-3.316406-12.722656-5.046875-19.695312-5.046875-15.714844 0-29.925782 9.03125-36.726563 22.902344-19.105469 3.523437-33.457031 20.339844-33.457031 40.214844v121.28125c0 29.667968 5.316406 58.78125 15.800781 86.53125l3.710938 9.828124c9.835937 26.035157 14.824219 53.347657 14.824219 81.179688v21.976562c0 4.183594 3.390624 7.574219 7.574218 7.574219s7.574219-3.390625 7.574219-7.574219v-21.976562c0-29.667969-5.316406-58.78125-15.800781-86.535156l-3.714844-9.824219c-9.832031-26.035156-14.820312-53.347656-14.820312-81.179687v-55.136719h49.480468v18.683593c0 12.574219 9.898438 23.5625 22.597656 24.160157 13.339844.621093 24.867188-10.339844 24.867188-23.707031v-19.136719h19.558594c3.679687 7.710937 11.253906 13.136719 20.203125 13.558593 9.925781.457032 18.613281-5.222656 22.578125-13.558593h29.558594v11.992187c0 4.183594 3.390624 7.574219 7.574218 7.574219s7.574219-3.390625 7.574219-7.574219v-78.136718c0-19.875-14.351563-36.691407-33.457031-40.214844zm-121.050782 91.210937h-49.484374v-43.421875h40.898437c4.734375 0 8.585937 3.847656 8.585937 8.582032zm64.628907 0h-17.167969v-15.195312c0-4.765625 3.660156-8.816407 8.160156-9.03125 4.925782-.238281 9.007813 3.703125 9.007813 8.574219zm32.316406-34.839843v39.839843c0 4.875-4.101563 8.816407-9.007813 8.574219-4.5-.210938-8.160156-4.261719-8.160156-9.027344v-20.199218c0-13.460938-11.257812-24.335938-24.867187-23.703126-12.671875.597657-22.59375 11.210938-22.59375 24.160157v49.484375c0 4.875-4.097657 8.820312-9.007813 8.574218-4.5-.214843-8.160156-4.265624-8.160156-9.03125v-68.671874c0-13.085938-10.644531-23.730469-23.730469-23.730469h-39.761719c3.078126-9.957031 12.058594-17.421875 22.933594-18.117188 3.035156-.195312 5.65625-2.183593 6.664063-5.050781 3.613281-10.304688 13.378906-17.226562 24.300781-17.226562 5.515625 0 10.773438 1.71875 15.210938 4.976562 2.667968 1.957031 6.296874 1.957031 8.964843 0 4.433594-3.257812 9.695313-4.976562 15.210938-4.976562s10.773437 1.71875 15.210937 4.976562c2.667969 1.957031 6.296875 1.957031 8.960938 0 4.4375-3.257812 9.699218-4.976562 15.214844-4.976562 10.917968 0 20.683593 6.921874 24.300781 17.226562 1.003906 2.867188 3.628906 4.855469 6.660156 5.050781 10.878906.699219 19.859375 8.160157 22.933594 18.117188h-17.546875c-13.085938 0-23.730469 10.644531-23.730469 23.730469zm42.414063 34.839843h-27.265626v-34.839843c0-4.734376 3.851563-8.582032 8.582032-8.582032h18.683594zm0 0"/></svg>