<?xml version="1.0" encoding="UTF-8" standalone="no"?>
<svg
   viewBox="0 0 456.00323 480.00751"
   x="0px"
   y="0px"
   version="1.1"
   id="svg7"
   width="456.00323"
   height="480.00751"
   xmlns="http://www.w3.org/2000/svg"
   xmlns:svg="http://www.w3.org/2000/svg">
  <defs
     id="defs7" />
  <g
     id="g6"
     transform="translate(-15.999245,-16)">
    <path
       d="m 192.983,255.641 c -0.237,-5.287 -0.434,-10.626 -0.584,-15.87 l -15.993,0.458 c 0.153,5.331 0.352,10.757 0.594,16.13 z"
       id="path1" />
    <path
       d="m 187.3,361.2 15.818,-2.406 c -4.377,-28.768 -7.5,-58.135 -9.289,-87.286 l -15.97,0.978 c 1.814,29.631 4.99,59.479 9.441,88.714 z"
       id="path2" />
    <path
       d="M 312,99.476 V 40 A 24.027,24.027 0 0 0 288,16 h -64 a 24.027,24.027 0 0 0 -24,24 v 59.474 a 118.394,118.394 0 0 0 -54.683,83.339 l 15.824,2.374 A 102.509,102.509 0 0 1 210.166,112 h 91.667 a 103.372,103.372 0 0 1 50.159,88 H 128 v 16 h 16.021 a 1026.346,1026.346 0 0 0 13.9,164.189 l 18.188,109.126 A 8,8 0 0 0 184,496 h 144 a 8,8 0 0 0 7.891,-6.685 L 354.079,380.189 A 1026.346,1026.346 0 0 0 367.979,216 H 384 V 200 H 367.992 A 119.414,119.414 0 0 0 312,99.476 Z M 216,96 V 40 a 8.009,8.009 0 0 1 8,-8 h 64 a 8.009,8.009 0 0 1 8,8 V 96 Z M 338.3,377.559 321.223,480 H 190.777 L 173.7,377.559 A 1010.285,1010.285 0 0 1 160.008,216 H 351.992 A 1010.285,1010.285 0 0 1 338.3,377.559 Z"
       id="path3" />
    <path
       d="m 221.922,142.518 -9.279,-13.036 A 87.923,87.923 0 0 0 180.3,173.516 l 15.209,4.968 a 71.81,71.81 0 0 1 26.413,-35.966 z"
       id="path4" />
    <path
       d="m 443.235,417.617 c 0.044,-0.535 0.079,-1.073 0.079,-1.617 a 19.186,19.186 0 0 0 -5.657,-13.657 3.312,3.312 0 0 1 0,-4.686 19.314,19.314 0 0 0 0,-27.314 3.312,3.312 0 0 1 0,-4.686 19.314,19.314 0 0 0 0,-27.314 3.312,3.312 0 0 1 0,-4.686 19.314,19.314 0 0 0 0,-27.314 3.312,3.312 0 0 1 0,-4.686 19.314,19.314 0 0 0 0,-27.314 3.312,3.312 0 0 1 0,-4.686 19.314,19.314 0 0 0 0,-27.314 3.312,3.312 0 0 1 0,-4.686 19.314,19.314 0 0 0 0,-27.314 3.312,3.312 0 0 1 0,-4.686 19.314,19.314 0 0 0 0,-27.314 3.312,3.312 0 0 1 0,-4.686 19.314,19.314 0 0 0 0,-27.314 A 3.3,3.3 0 0 1 436.686,144 H 448 a 8,8 0 0 0 7.761,-6.06 l 12.12,-48.477 A 138.13,138.13 0 0 0 472,56 a 40,40 0 0 0 -80,0 138.13,138.13 0 0 0 4.119,33.463 l 12.12,48.477 A 8,8 0 0 0 416,144 h 4.686 a 19.186,19.186 0 0 0 5.657,13.657 3.312,3.312 0 0 1 0,4.686 19.314,19.314 0 0 0 0,27.314 3.312,3.312 0 0 1 0,4.686 19.314,19.314 0 0 0 0,27.314 3.312,3.312 0 0 1 0,4.686 19.314,19.314 0 0 0 0,27.314 3.312,3.312 0 0 1 0,4.686 19.314,19.314 0 0 0 0,27.314 3.312,3.312 0 0 1 0,4.686 19.314,19.314 0 0 0 0,27.314 3.312,3.312 0 0 1 0,4.686 19.314,19.314 0 0 0 0,27.314 3.312,3.312 0 0 1 0,4.686 19.314,19.314 0 0 0 0,27.314 3.312,3.312 0 0 1 0,4.686 19.314,19.314 0 0 0 0,27.314 3.3,3.3 0 0 1 0.971,2.343 c 0,0.083 -0.006,0.181 -0.015,0.285 a 40,40 0 1 0 15.936,1.332 z M 411.642,85.582 A 122.057,122.057 0 0 1 408,56 a 24,24 0 0 1 48,0 122.057,122.057 0 0 1 -3.642,29.582 L 441.754,128 H 422.246 Z M 432,480 a 23.993,23.993 0 0 1 -11.1,-45.268 19.152,19.152 0 0 0 5.443,10.925 3.312,3.312 0 0 1 0,4.686 l 11.314,11.314 a 19.314,19.314 0 0 0 0,-27.314 3.27,3.27 0 0 1 -0.937,-1.874 A 24,24 0 0 1 432,480 Z"
       id="path5" />
    <path
       d="m 128,328 c 0,-16.579 -28.126,-24 -56,-24 -27.874,0 -56,7.421 -56,24 a 13.717,13.717 0 0 0 1.549,6.338 L 39.648,408 16.337,485.7 A 8,8 0 0 0 24,496 h 96 a 8,8 0 0 0 7.663,-10.3 l -23.311,-77.7 22.1,-73.662 A 13.717,13.717 0 0 0 128,328 Z m -56,-8 c 22.112,0 35.518,5.043 39.274,8 -3.756,2.957 -17.162,8 -39.274,8 -22.112,0 -35.518,-5.043 -39.274,-8 3.756,-2.957 17.162,-8 39.274,-8 z m 18.048,80 H 72 v 16 h 18.048 l 19.2,64 h -74.5 l 20.911,-69.7 a 8.016,8.016 0 0 0 0,-4.6 L 38.285,347.775 C 48.086,350.634 60.062,352 72,352 c 11.938,0 23.914,-1.366 33.715,-4.225 z"
       id="path6" />
  </g>
</svg>
