<?xml version="1.0" encoding="UTF-8" standalone="no"?>
<svg
   viewBox="0 0 480 476.17532"
   x="0px"
   y="0px"
   version="1.1"
   id="svg10"
   width="480"
   height="476.17532"
   xmlns="http://www.w3.org/2000/svg"
   xmlns:svg="http://www.w3.org/2000/svg">
  <defs
     id="defs10" />
  <g
     data-name="Out line"
     id="g9"
     transform="translate(-16,-19.824661)">
    <path
       d="m 424,256 h -24 v -8 a 7.99977,7.99977 0 0 0 -8,-8 H 152 a 7.99977,7.99977 0 0 0 -8,8 v 40 H 56 a 7.99977,7.99977 0 0 0 -8,8 v 88 H 24 a 7.99977,7.99977 0 0 0 -8,8 v 96 a 7.99977,7.99977 0 0 0 8,8 h 400 a 40.04521,40.04521 0 0 0 40,-40 7.99977,7.99977 0 0 0 -8,-8 H 351.36279 a 104.83166,104.83166 0 0 0 26.557,-24 H 424 a 72.08187,72.08187 0 0 0 72,-72 v -24 a 72.08187,72.08187 0 0 0 -72,-72 z m -24,48 h 24 a 24.02687,24.02687 0 0 1 24,24 v 24 a 24.02687,24.02687 0 0 1 -24,24 H 398.7691 A 104.36026,104.36026 0 0 0 400,360 Z m -211.88232,172.68652 -56.56885,-56.56884 56.56885,-56.56885 56.56884,56.56885 z M 168.8042,480 H 128 V 439.1958 Z M 64,304 h 80 v 80 H 64 Z m 48,176 H 32 v -80 h 80 z M 446.62891,464 A 24.04118,24.04118 0 0 1 424,480 H 207.43115 l 16,-16 z M 296,448 h -48 q -4.11034,0 -8.18683,-0.38208 l 21.84357,-21.84351 a 7.99914,7.99914 0 0 0 0,-11.31347 l -67.88233,-67.88233 a 8,8 0 0 0 -11.31347,0 L 160,369.03955 V 256 h 224 v 104 a 88.09957,88.09957 0 0 1 -88,88 z m 184,-96 a 56.06353,56.06353 0 0 1 -56,56 h -35.76147 a 103.38182,103.38182 0 0 0 6.71752,-16 H 424 a 40.04521,40.04521 0 0 0 40,-40 v -24 a 40.04521,40.04521 0 0 0 -40,-40 h -24 v -16 h 24 a 56.06353,56.06353 0 0 1 56,56 z"
       id="path1" />
    <path
       d="m 234.812,192 h -24.16991 a 88.186,88.186 0 0 1 -71.76025,-36.9292 l -24.311,-34.03516 A 47.17418,47.17418 0 0 0 102.8267,109.50439 L 28.59326,57.44971 19.40674,70.55029 93.71631,122.65723 a 31.36307,31.36307 0 0 1 7.835,7.67822 l 24.311,34.03516 A 104.18421,104.18421 0 0 0 210.64209,208 H 234.812 a 21.20361,21.20361 0 0 0 21.10211,-19.49365 l 1.09027,0.34863 a 7.99255,7.99255 0 0 0 10.05616,-5.18408 L 296.29541,92.231 A 8.00049,8.00049 0 0 0 291.11133,82.17484 L 199.6709,52.93945 a 8.00008,8.00008 0 0 0 -10.05615,5.18409 l -22.496,70.363 a 153.6686,153.6686 0 0 1 -17.34387,-19.45288 l -3.49316,-4.65771 A 47.3218,47.3218 0 0 0 135.22363,93.7583 L 28.47136,19.82466 19.362,32.978 126.13673,106.92726 a 31.40808,31.40808 0 0 1 7.34521,7.04834 l 3.49317,4.6582 a 169.34025,169.34025 0 0 0 41.64209,39.39258 158.77983,158.77983 0 0 0 57.21289,23.69824 A 5.18814,5.18814 0 0 1 234.812,192 Z m -47.31982,-47.28662 c -2.43775,-1.62512 -4.80329,-3.33887 -7.13532,-5.09241 l 22.06159,-69.00525 76.20068,24.3628 -24.3623,76.20019 -9.43964,-3.01782 a 21.00177,21.00177 0 0 0 -5.8504,-2.12622 142.84758,142.84758 0 0 1 -51.4746,-21.32129 z"
       id="path2" />
    <rect
       x="48"
       y="416"
       width="16"
       height="16"
       id="rect2" />
    <rect
       x="72"
       y="448"
       width="16"
       height="16"
       id="rect3" />
    <rect
       x="80"
       y="320"
       width="16"
       height="16"
       id="rect4" />
    <rect
       x="104"
       y="352"
       width="16"
       height="16"
       id="rect5" />
    <rect
       x="180.11784"
       y="389.49039"
       width="15.99967"
       height="15.99967"
       transform="rotate(-45,188.11768,397.49024)"
       id="rect6" />
    <rect
       x="174.46111"
       y="429.08853"
       width="15.99967"
       height="15.99967"
       transform="rotate(-45,182.46094,437.08839)"
       id="rect7" />
    <rect
       x="209.97018"
       y="92.784813"
       width="16.000059"
       height="16.00021"
       transform="rotate(-72.27005,217.97021,100.78491)"
       id="rect8" />
    <rect
       x="223.08517"
       y="130.57393"
       width="16.000059"
       height="15.99959"
       transform="rotate(-72.27172,231.08518,138.57373)"
       id="rect9" />
  </g>
</svg>
