<?xml version="1.0" encoding="UTF-8" standalone="no"?>
<svg
   viewBox="0 0 368.00058 496"
   x="0px"
   y="0px"
   version="1.1"
   id="svg2"
   width="368.00058"
   height="496"
   xmlns="http://www.w3.org/2000/svg"
   xmlns:svg="http://www.w3.org/2000/svg">
  <defs
     id="defs2" />
  <path
     d="M 345.45501,203.687 A 56.07,56.07 0 0 1 328.23401,168 h 7.766 a 8,8 0 0 0 8,-8 v -16 a 24.028,24.028 0 0 0 -24,-24 h -48 a 23.976,23.976 0 0 0 -19.432,9.94 L 192.00001,99.1 V 96 h 16 c 13.233,0 24,-10.114 24,-22.546 V 37.091 c 0,-20.452 -17.944,-37.091000010716221 -40,-37.091000010716221 H 96.000006 c -22.056,0 -40,16.639000010716223 -40,37.091000010716221 v 36.363 c 0,12.432 10.767,22.546 24,22.546 h 16 v 3.1 l -72.91,37.125 A 40.119,40.119 0 0 0 5.6833188e-6,172.475 V 184 A 23.9,23.9 0 0 0 6.1310057,200 23.9,23.9 0 0 0 5.6833188e-6,216 v 16 A 23.9,23.9 0 0 0 6.1310057,248 23.9,23.9 0 0 0 5.6833188e-6,264 v 16 A 23.9,23.9 0 0 0 6.1310057,296 23.9,23.9 0 0 0 5.6833188e-6,312 v 16 A 23.9,23.9 0 0 0 6.1310057,344 23.9,23.9 0 0 0 5.6833188e-6,360 v 16 A 23.9,23.9 0 0 0 6.1310057,392 23.9,23.9 0 0 0 5.6833188e-6,408 v 16 A 23.9,23.9 0 0 0 6.1310057,440 23.9,23.9 0 0 0 5.6833188e-6,456 40.045,40.045 0 0 0 40.000006,496 H 328.00001 a 40.045,40.045 0 0 0 40,-40 v -72 a 23.9,23.9 0 0 0 -6.131,-16 23.9,23.9 0 0 0 6.131,-16 v -16 a 23.9,23.9 0 0 0 -6.131,-16 23.9,23.9 0 0 0 6.131,-16 v -16 a 23.9,23.9 0 0 0 -6.131,-16 23.9,23.9 0 0 0 6.131,-16 71.3,71.3 0 0 0 -22.545,-52.313 z m 6.545,52.313 a 8.009,8.009 0 0 1 -8,8 h -96 a 8.009,8.009 0 0 1 -8,-8 55.462,55.462 0 0 1 17.535,-40.687 70.834,70.834 0 0 0 6.719,-7.313 h 63.492 a 70.854,70.854 0 0 0 6.72,7.314 55.461,55.461 0 0 1 17.534,40.686 z m 0,32 v 16 a 8.009,8.009 0 0 1 -8,8 h -96 a 8.009,8.009 0 0 1 -8,-8 v -16 a 8.009,8.009 0 0 1 8,-8 h 96 a 8.009,8.009 0 0 1 8,8 z m 0,48 v 16 a 8.009,8.009 0 0 1 -8,8 h -96 a 8.009,8.009 0 0 1 -8,-8 v -16 a 8.009,8.009 0 0 1 8,-8 h 96 a 8.009,8.009 0 0 1 8,8 z m -128,96 H 24.000006 a 8.009,8.009 0 0 1 -8,-8 v -16 a 8.009,8.009 0 0 1 8,-8 H 224.00001 Z M 16.000006,376 v -16 a 8.009,8.009 0 0 1 8,-8 H 224.00001 a 23.9,23.9 0 0 0 6.131,16 23.9,23.9 0 0 0 -6.131,16 H 24.000006 a 8.009,8.009 0 0 1 -8,-8 z m 0,-48 v -16 a 8.009,8.009 0 0 1 8,-8 H 224.00001 a 23.9,23.9 0 0 0 6.131,16 23.9,23.9 0 0 0 -6.131,16 H 24.000006 a 8.009,8.009 0 0 1 -8,-8 z m 0,-48 v -16 a 8.009,8.009 0 0 1 8,-8 H 224.00001 a 23.9,23.9 0 0 0 6.131,16 23.9,23.9 0 0 0 -6.131,16 H 24.000006 a 8.009,8.009 0 0 1 -8,-8 z m 0,-48 v -16 a 8.009,8.009 0 0 1 8,-8 H 242.36501 a 70.968,70.968 0 0 0 -16.581,32 H 24.000006 a 8.009,8.009 0 0 1 -8,-8 z M 318.10501,192 h -44.205 a 72.214,72.214 0 0 0 5.935,-24 h 32.34 a 72.214,72.214 0 0 0 5.93,24 z m -54.105,-48 a 8.009,8.009 0 0 1 8,-8 h 48 a 8.009,8.009 0 0 1 8,8 v 8 h -64 z m -80,-80 h -80 v -8 a 8.009,8.009 0 0 1 8,-8 h 64 a 8.009,8.009 0 0 1 8,8 z m -72,16 h 64 v 16 h -64 z m -32.000004,0 c -4.411,0 -8,-2.937 -8,-6.546 V 37.091 c 0,-11.63 10.767,-21.091 24,-21.091 h 96.000004 c 13.233,0 24,9.461 24,21.091 v 36.363 c 0,3.609 -3.589,6.546 -8,6.546 h -16 a 8,8 0 0 0 8,-8 V 56 a 24.028,24.028 0 0 0 -24,-24 h -64 A 24.028,24.028 0 0 0 88.000006,56 v 16 a 8,8 0 0 0 8,8 z m -64,92.475 a 24.071,24.071 0 0 1 13.942,-21.791 c 0.094,-0.043 0.187,-0.088 0.278,-0.135 L 105.92001,112 h 76.16 l 65.92,33.569 V 160 a 8,8 0 0 0 8,8 h 7.766 a 56.225,56.225 0 0 1 -7.841,24 H 24.000006 a 8.009,8.009 0 0 1 -8,-8 z m 0,283.525 a 8.009,8.009 0 0 1 8,-8 H 224.00001 v 8 a 39.788,39.788 0 0 0 8.022,24 H 40.000006 a 24.028,24.028 0 0 1 -24,-24 z m 336.000004,0 a 24.028,24.028 0 0 1 -24,24 h -64 a 24.028,24.028 0 0 1 -24,-24 v -72 a 8.009,8.009 0 0 1 8,-8 h 96 a 8.009,8.009 0 0 1 8,8 z"
     id="path1" />
</svg>
